<?xml version="1.0" encoding="UTF-8"?><svg id="Layer_2" xmlns="http://www.w3.org/2000/svg" viewBox="0 0 50 39.1"><defs><style>.cls-1{fill:#ad8b5a;}</style></defs><g id="Layer_1-2"><path class="cls-1" d="M38.92,16.93h-13.68c-.24-.31-1.74-2.52,.87-5.9,1.74-2.25,2.39-4.29,1.93-6.08-.49-1.93-2.28-3.59-5.32-4.92-.2-.09-.44,.03-.49,.25-.04,.17,.06,.33,.22,.4,2.82,1.24,4.47,2.73,4.91,4.44,.4,1.57-.21,3.41-1.8,5.48-.89,1.16-1.9,2.95-1.61,4.91,.09,.62,.29,1.1,.46,1.42H11.08C4.94,16.93-.04,21.94,0,28.1c.04,6.01,4.93,10.93,10.94,11,3.89,.05,7.32-1.9,9.33-4.89,.15-.23,.41-.37,.69-.37h8.07c.28,0,.53,.14,.69,.37,2.02,2.99,5.45,4.94,9.33,4.89,6.01-.07,10.9-4.99,10.94-11,.04-6.16-4.94-11.16-11.08-11.16Zm2.42,6.25c.96,0,1.73,.78,1.73,1.73s-.78,1.73-1.73,1.73-1.73-.78-1.73-1.73,.78-1.73,1.73-1.73Zm-27.35,5.87c0,.26-.21,.47-.47,.47h-1.94c-.22,0-.41,.18-.41,.41v1.94c0,.26-.21,.47-.47,.47h-1.96c-.26,0-.47-.21-.47-.47v-1.94c0-.22-.18-.41-.41-.41h-1.94c-.26,0-.47-.21-.47-.47v-1.96c0-.26,.21-.47,.47-.47h1.94c.22,0,.41-.18,.41-.41v-1.94c0-.26,.21-.47,.47-.47h1.96c.26,0,.47,.21,.47,.47v1.94c0,.22,.18,.41,.41,.41h1.94c.26,0,.47,.21,.47,.47v1.96Zm8.4-1.29h-3.67c-.13,0-.23-.1-.23-.23v-.41c0-.13,.1-.23,.23-.23h3.67c.13,0,.23,.1,.23,.23v.41c0,.13-.1,.23-.23,.23Zm8.98,0h-3.67c-.13,0-.23-.1-.23-.23v-.41c0-.13,.1-.23,.23-.23h3.67c.13,0,.23,.1,.23,.23v.41c0,.13-.1,.23-.23,.23Zm6.76,2.08c-.96,0-1.73-.78-1.73-1.73s.78-1.73,1.73-1.73,1.73,.78,1.73,1.73-.78,1.73-1.73,1.73Zm3.2,3.2c-.96,0-1.73-.78-1.73-1.73s.78-1.73,1.73-1.73,1.73,.78,1.73,1.73-.78,1.73-1.73,1.73Zm3.2-3.2c-.96,0-1.73-.78-1.73-1.73s.78-1.73,1.73-1.73,1.73,.78,1.73,1.73-.78,1.73-1.73,1.73Z"/></g></svg>