<?xml version="1.0" encoding="UTF-8"?><svg id="Layer_2" xmlns="http://www.w3.org/2000/svg" viewBox="0 0 36 19"><g id="Layer_1-2"><g><g><rect class="cls-1" y="2" width="3" height="15" rx=".57" ry=".57"/><rect class="cls-1" x="4" y="1" width="3" height="17" rx=".57" ry=".57"/><rect class="cls-1" x="8" y="0" width="3" height="19" rx=".57" ry=".57"/></g><g><rect class="cls-1" y="2" width="3" height="15" rx=".57" ry=".57"/><rect class="cls-1" x="4" y="1" width="3" height="17" rx=".57" ry=".57"/><rect class="cls-1" x="8" y="0" width="3" height="19" rx=".57" ry=".57"/></g><g><rect class="cls-1" x="33" y="2" width="3" height="15" rx=".57" ry=".57" transform="translate(69 19) rotate(-180)"/><rect class="cls-1" x="29" y="1" width="3" height="17" rx=".57" ry=".57" transform="translate(61 19) rotate(-180)"/><rect class="cls-1" x="25" y="0" width="3" height="19" rx=".57" ry=".57" transform="translate(53 19) rotate(-180)"/></g><rect class="cls-1" x="12" y="8" width="12" height="3" rx=".38" ry=".38"/></g></g></svg>