<?xml version="1.0" encoding="UTF-8"?><svg id="Layer_2" xmlns="http://www.w3.org/2000/svg" viewBox="0 0 81 37"><g id="Layer_1-2"><g><path class="cls-1" d="M40.39,17.25L3.79,.48c-.25-.11-.17-.48,.11-.48H77.11c.27,0,.35,.37,.11,.48L40.61,17.25c-.07,.03-.14,.03-.21,0Z"/><path class="cls-1" d="M37.61,18.63L.36,35.69c-.17,.08-.36-.05-.36-.23V1.34c0-.18,.19-.31,.36-.23L37.61,18.17c.2,.09,.2,.37,0,.46Z"/><path class="cls-1" d="M77.56,37H3.44c-.27,0-.35-.37-.11-.48L40.39,19.54c.07-.03,.14-.03,.21,0l37.06,16.98c.25,.11,.17,.48-.11,.48Z"/><path class="cls-1" d="M43.39,18.17L80.64,1.1c.17-.08,.36,.05,.36,.23V35.45c0,.18-.19,.31-.36,.23L43.39,18.63c-.2-.09-.2-.37,0-.46Z"/></g></g></svg>