<?xml version="1.0" encoding="UTF-8"?><svg id="Layer_2" xmlns="http://www.w3.org/2000/svg" viewBox="0 0 100 150">
<g id="Layer_1-2">
    <path class="cls-1" d="M95.64,0H4.36C1.95,0,0,1.95,0,4.36V145.64c0,2.41,1.95,4.36,4.36,4.36H95.64c2.41,0,4.36-1.95,4.36-4.36V4.36c0-2.41-1.95-4.36-4.36-4.36ZM50.5,144c-3.87,0-7-3.13-7-7s3.13-7,7-7,7,3.13,7,7-3.13,7-7,7Zm40-23.36c0,2.41-1.95,4.36-4.36,4.36H13.86c-2.41,0-4.36-1.95-4.36-4.36V11.61c0-2.41,1.95-4.36,4.36-4.36H86.14c2.41,0,4.36,1.95,4.36,4.36V120.64Z"/>
</g>
</svg>